<svg xmlns="http://www.w3.org/2000/svg" viewBox="0 0 1000 720" font-family="Helvetica, Arial, sans-serif">
<rect width="1000" height="720" fill="#ffffff"/>
<text x="40" y="44" font-size="21" font-weight="bold" fill="#0f172a">AVSA Remediation Roadmap: Priority by Effort and Impact</text>
<text x="40" y="68" font-size="13" fill="#64748b">14 initiatives plotted by implementation effort and risk-reduction impact . sequence top-left first . fictional scenario</text>
<rect x="120" y="100" width="720" height="460" fill="#fbfcfe" stroke="#e2e8f0"/>
<line x1="240.0" y1="100" x2="240.0" y2="560" stroke="#eef2f7" stroke-width="1"/>
<line x1="480.0" y1="100" x2="480.0" y2="560" stroke="#eef2f7" stroke-width="1"/>
<line x1="720.0" y1="100" x2="720.0" y2="560" stroke="#eef2f7" stroke-width="1"/>
<line x1="120" y1="502.5" x2="840" y2="502.5" stroke="#eef2f7" stroke-width="1"/>
<line x1="120" y1="215.0" x2="840" y2="215.0" stroke="#eef2f7" stroke-width="1"/>
<rect x="120" y="100" width="360.0" height="230.0" fill="#16a34a" fill-opacity="0.05"/>
<text x="134" y="124" font-size="12.5" font-weight="bold" fill="#16a34a">Do first: high impact, low effort</text>
<text x="480" y="612" font-size="13.5" font-weight="bold" fill="#334155" text-anchor="middle">Implementation effort &#8594;</text>
<text x="240.0" y="582" font-size="11.5" fill="#64748b" text-anchor="middle">Low</text>
<text x="480.0" y="582" font-size="11.5" fill="#64748b" text-anchor="middle">Medium</text>
<text x="720.0" y="582" font-size="11.5" fill="#64748b" text-anchor="middle">High</text>
<text x="46" y="330" font-size="13.5" font-weight="bold" fill="#334155" text-anchor="middle" transform="rotate(-90 46 330)">Impact / risk reduction &#8594;</text>
<text x="108" y="506.5" font-size="11.5" fill="#64748b" text-anchor="end">Medium</text>
<text x="108" y="219.0" font-size="11.5" fill="#64748b" text-anchor="end">High</text>
<circle cx="216.0" cy="200.6" r="17" fill="#16a34a" fill-opacity="0.88" stroke="#ffffff" stroke-width="2"/>
<text x="216.0" y="204.6" font-size="11" font-weight="bold" fill="#ffffff" text-anchor="middle">01</text>
<circle cx="348.0" cy="243.8" r="17" fill="#16a34a" fill-opacity="0.88" stroke="#ffffff" stroke-width="2"/>
<text x="348.0" y="247.8" font-size="11" font-weight="bold" fill="#ffffff" text-anchor="middle">02</text>
<circle cx="480.0" cy="157.5" r="17" fill="#16a34a" fill-opacity="0.88" stroke="#ffffff" stroke-width="2"/>
<text x="480.0" y="161.5" font-size="11" font-weight="bold" fill="#ffffff" text-anchor="middle">03</text>
<circle cx="228.0" cy="445.0" r="17" fill="#16a34a" fill-opacity="0.88" stroke="#ffffff" stroke-width="2"/>
<text x="228.0" y="449.0" font-size="11" font-weight="bold" fill="#ffffff" text-anchor="middle">04</text>
<circle cx="336.0" cy="387.5" r="17" fill="#16a34a" fill-opacity="0.88" stroke="#ffffff" stroke-width="2"/>
<text x="336.0" y="391.5" font-size="11" font-weight="bold" fill="#ffffff" text-anchor="middle">05</text>
<circle cx="720.0" cy="229.4" r="17" fill="#2563eb" fill-opacity="0.88" stroke="#ffffff" stroke-width="2"/>
<text x="720.0" y="233.4" font-size="11" font-weight="bold" fill="#ffffff" text-anchor="middle">06</text>
<circle cx="780.0" cy="143.1" r="17" fill="#2563eb" fill-opacity="0.88" stroke="#ffffff" stroke-width="2"/>
<text x="780.0" y="147.1" font-size="11" font-weight="bold" fill="#ffffff" text-anchor="middle">07</text>
<circle cx="612.0" cy="272.5" r="17" fill="#2563eb" fill-opacity="0.88" stroke="#ffffff" stroke-width="2"/>
<text x="612.0" y="276.5" font-size="11" font-weight="bold" fill="#ffffff" text-anchor="middle">08</text>
<circle cx="492.0" cy="315.6" r="17" fill="#2563eb" fill-opacity="0.88" stroke="#ffffff" stroke-width="2"/>
<text x="492.0" y="319.6" font-size="11" font-weight="bold" fill="#ffffff" text-anchor="middle">09</text>
<circle cx="672.0" cy="171.9" r="17" fill="#d97706" fill-opacity="0.88" stroke="#ffffff" stroke-width="2"/>
<text x="672.0" y="175.9" font-size="11" font-weight="bold" fill="#ffffff" text-anchor="middle">10</text>
<circle cx="432.0" cy="488.1" r="17" fill="#d97706" fill-opacity="0.88" stroke="#ffffff" stroke-width="2"/>
<text x="432.0" y="492.1" font-size="11" font-weight="bold" fill="#ffffff" text-anchor="middle">11</text>
<circle cx="528.0" cy="401.9" r="17" fill="#d97706" fill-opacity="0.88" stroke="#ffffff" stroke-width="2"/>
<text x="528.0" y="405.9" font-size="11" font-weight="bold" fill="#ffffff" text-anchor="middle">12</text>
<circle cx="372.0" cy="502.5" r="17" fill="#d97706" fill-opacity="0.88" stroke="#ffffff" stroke-width="2"/>
<text x="372.0" y="506.5" font-size="11" font-weight="bold" fill="#ffffff" text-anchor="middle">13</text>
<circle cx="624.0" cy="373.1" r="17" fill="#d97706" fill-opacity="0.88" stroke="#ffffff" stroke-width="2"/>
<text x="624.0" y="377.1" font-size="11" font-weight="bold" fill="#ffffff" text-anchor="middle">14</text>
<rect x="126" y="466" width="272" height="86" rx="8" fill="#ffffff" stroke="#dbe2ea"/>
<text x="134" y="484" font-size="12" font-weight="bold" fill="#334155">Horizon</text>
<circle cx="142" cy="498" r="8" fill="#16a34a"/>
<text x="158" y="502" font-size="11.5" fill="#334155">Quick wins (0-3 months)</text>
<circle cx="142" cy="519" r="8" fill="#2563eb"/>
<text x="158" y="523" font-size="11.5" fill="#334155">Structural (3-12 months)</text>
<circle cx="142" cy="540" r="8" fill="#d97706"/>
<text x="158" y="544" font-size="11.5" fill="#334155">Program (6-24 months)</text>
<text x="40" y="704" font-size="11" fill="#94a3b8">Fictional scenario - Aguas de Valdenor, S.A. . Numbers are initiative IDs (RM-01..RM-14); see remediation-roadmap.md . No real client data.</text>
</svg>