<svg xmlns="http://www.w3.org/2000/svg" viewBox="0 0 840 726" font-family="Helvetica, Arial, sans-serif">
<rect x="0" y="0" width="840" height="726" fill="#ffffff"/>
<text x="40" y="44" font-size="20" font-weight="bold" fill="#0f172a">AVSA Risk Matrix — Inherent (Unmitigated) Risk</text>
<text x="40" y="68" font-size="12.5" fill="#64748b">14 risks by consequence × likelihood before existing controls · IEC 62443-3-2 · the "before" picture the remediation roadmap reduces</text>
<text x="34" y="336.0" font-size="13" font-weight="bold" fill="#334155" transform="rotate(-90 34 336.0)" text-anchor="middle">CONSEQUENCE &#8594;</text>
<text x="495.0" y="636" font-size="13" font-weight="bold" fill="#334155" text-anchor="middle">LIKELIHOOD &#8594;</text>
<rect x="190" y="96" width="118" height="92" rx="4" fill="#C6EFCE" stroke="#ffffff" stroke-width="2"/>
<text x="300" y="114" font-size="10.5" fill="#1E6B34" opacity="0.55" text-anchor="end">5</text>
<rect x="312" y="96" width="118" height="92" rx="4" fill="#FFEB9C" stroke="#ffffff" stroke-width="2"/>
<text x="422" y="114" font-size="10.5" fill="#8A6D00" opacity="0.55" text-anchor="end">10</text>
<rect x="347.0" y="132.5" width="48" height="19" rx="9.5" fill="#ffffff" stroke="#8A6D00" stroke-width="1.3" opacity="0.96"/>
<text x="371.0" y="146.0" font-size="11" font-weight="bold" fill="#8A6D00" text-anchor="middle">R-14</text>
<rect x="434" y="96" width="118" height="92" rx="4" fill="#FFC79C" stroke="#ffffff" stroke-width="2"/>
<text x="544" y="114" font-size="10.5" fill="#9C4A00" opacity="0.55" text-anchor="end">15</text>
<rect x="469.0" y="132.5" width="48" height="19" rx="9.5" fill="#ffffff" stroke="#9C4A00" stroke-width="1.3" opacity="0.96"/>
<text x="493.0" y="146.0" font-size="11" font-weight="bold" fill="#9C4A00" text-anchor="middle">R-04</text>
<rect x="556" y="96" width="118" height="92" rx="4" fill="#FFB3B3" stroke="#ffffff" stroke-width="2"/>
<text x="666" y="114" font-size="10.5" fill="#B00000" opacity="0.55" text-anchor="end">20</text>
<rect x="678" y="96" width="118" height="92" rx="4" fill="#FFB3B3" stroke="#ffffff" stroke-width="2"/>
<text x="788" y="114" font-size="10.5" fill="#B00000" opacity="0.55" text-anchor="end">25</text>
<rect x="190" y="192" width="118" height="92" rx="4" fill="#C6EFCE" stroke="#ffffff" stroke-width="2"/>
<text x="300" y="210" font-size="10.5" fill="#1E6B34" opacity="0.55" text-anchor="end">4</text>
<rect x="312" y="192" width="118" height="92" rx="4" fill="#FFEB9C" stroke="#ffffff" stroke-width="2"/>
<text x="422" y="210" font-size="10.5" fill="#8A6D00" opacity="0.55" text-anchor="end">8</text>
<rect x="434" y="192" width="118" height="92" rx="4" fill="#FFC79C" stroke="#ffffff" stroke-width="2"/>
<text x="544" y="210" font-size="10.5" fill="#9C4A00" opacity="0.55" text-anchor="end">12</text>
<rect x="442.5" y="216.5" width="48" height="19" rx="9.5" fill="#ffffff" stroke="#9C4A00" stroke-width="1.3" opacity="0.96"/>
<text x="466.5" y="230.0" font-size="11" font-weight="bold" fill="#9C4A00" text-anchor="middle">R-02</text>
<rect x="495.5" y="216.5" width="48" height="19" rx="9.5" fill="#ffffff" stroke="#9C4A00" stroke-width="1.3" opacity="0.96"/>
<text x="519.5" y="230.0" font-size="11" font-weight="bold" fill="#9C4A00" text-anchor="middle">R-06</text>
<rect x="442.5" y="240.5" width="48" height="19" rx="9.5" fill="#ffffff" stroke="#9C4A00" stroke-width="1.3" opacity="0.96"/>
<text x="466.5" y="254.0" font-size="11" font-weight="bold" fill="#9C4A00" text-anchor="middle">R-08</text>
<rect x="495.5" y="240.5" width="48" height="19" rx="9.5" fill="#ffffff" stroke="#9C4A00" stroke-width="1.3" opacity="0.96"/>
<text x="519.5" y="254.0" font-size="11" font-weight="bold" fill="#9C4A00" text-anchor="middle">R-13</text>
<rect x="556" y="192" width="118" height="92" rx="4" fill="#FFB3B3" stroke="#ffffff" stroke-width="2"/>
<text x="666" y="210" font-size="10.5" fill="#B00000" opacity="0.55" text-anchor="end">16</text>
<rect x="564.5" y="204.5" width="48" height="19" rx="9.5" fill="#ffffff" stroke="#B00000" stroke-width="1.3" opacity="0.96"/>
<text x="588.5" y="218.0" font-size="11" font-weight="bold" fill="#B00000" text-anchor="middle">R-01</text>
<rect x="617.5" y="204.5" width="48" height="19" rx="9.5" fill="#ffffff" stroke="#B00000" stroke-width="1.3" opacity="0.96"/>
<text x="641.5" y="218.0" font-size="11" font-weight="bold" fill="#B00000" text-anchor="middle">R-03</text>
<rect x="564.5" y="228.5" width="48" height="19" rx="9.5" fill="#ffffff" stroke="#B00000" stroke-width="1.3" opacity="0.96"/>
<text x="588.5" y="242.0" font-size="11" font-weight="bold" fill="#B00000" text-anchor="middle">R-07</text>
<rect x="617.5" y="228.5" width="48" height="19" rx="9.5" fill="#ffffff" stroke="#B00000" stroke-width="1.3" opacity="0.96"/>
<text x="641.5" y="242.0" font-size="11" font-weight="bold" fill="#B00000" text-anchor="middle">R-10</text>
<rect x="564.5" y="252.5" width="48" height="19" rx="9.5" fill="#ffffff" stroke="#B00000" stroke-width="1.3" opacity="0.96"/>
<text x="588.5" y="266.0" font-size="11" font-weight="bold" fill="#B00000" text-anchor="middle">R-12</text>
<rect x="678" y="192" width="118" height="92" rx="4" fill="#FFB3B3" stroke="#ffffff" stroke-width="2"/>
<text x="788" y="210" font-size="10.5" fill="#B00000" opacity="0.55" text-anchor="end">20</text>
<rect x="190" y="288" width="118" height="92" rx="4" fill="#C6EFCE" stroke="#ffffff" stroke-width="2"/>
<text x="300" y="306" font-size="10.5" fill="#1E6B34" opacity="0.55" text-anchor="end">3</text>
<rect x="312" y="288" width="118" height="92" rx="4" fill="#FFEB9C" stroke="#ffffff" stroke-width="2"/>
<text x="422" y="306" font-size="10.5" fill="#8A6D00" opacity="0.55" text-anchor="end">6</text>
<rect x="434" y="288" width="118" height="92" rx="4" fill="#FFEB9C" stroke="#ffffff" stroke-width="2"/>
<text x="544" y="306" font-size="10.5" fill="#8A6D00" opacity="0.55" text-anchor="end">9</text>
<rect x="442.5" y="324.5" width="48" height="19" rx="9.5" fill="#ffffff" stroke="#8A6D00" stroke-width="1.3" opacity="0.96"/>
<text x="466.5" y="338.0" font-size="11" font-weight="bold" fill="#8A6D00" text-anchor="middle">R-09</text>
<rect x="495.5" y="324.5" width="48" height="19" rx="9.5" fill="#ffffff" stroke="#8A6D00" stroke-width="1.3" opacity="0.96"/>
<text x="519.5" y="338.0" font-size="11" font-weight="bold" fill="#8A6D00" text-anchor="middle">R-11</text>
<rect x="556" y="288" width="118" height="92" rx="4" fill="#FFC79C" stroke="#ffffff" stroke-width="2"/>
<text x="666" y="306" font-size="10.5" fill="#9C4A00" opacity="0.55" text-anchor="end">12</text>
<rect x="591.0" y="324.5" width="48" height="19" rx="9.5" fill="#ffffff" stroke="#9C4A00" stroke-width="1.3" opacity="0.96"/>
<text x="615.0" y="338.0" font-size="11" font-weight="bold" fill="#9C4A00" text-anchor="middle">R-05</text>
<rect x="678" y="288" width="118" height="92" rx="4" fill="#FFC79C" stroke="#ffffff" stroke-width="2"/>
<text x="788" y="306" font-size="10.5" fill="#9C4A00" opacity="0.55" text-anchor="end">15</text>
<rect x="190" y="384" width="118" height="92" rx="4" fill="#C6EFCE" stroke="#ffffff" stroke-width="2"/>
<text x="300" y="402" font-size="10.5" fill="#1E6B34" opacity="0.55" text-anchor="end">2</text>
<rect x="312" y="384" width="118" height="92" rx="4" fill="#C6EFCE" stroke="#ffffff" stroke-width="2"/>
<text x="422" y="402" font-size="10.5" fill="#1E6B34" opacity="0.55" text-anchor="end">4</text>
<rect x="434" y="384" width="118" height="92" rx="4" fill="#FFEB9C" stroke="#ffffff" stroke-width="2"/>
<text x="544" y="402" font-size="10.5" fill="#8A6D00" opacity="0.55" text-anchor="end">6</text>
<rect x="556" y="384" width="118" height="92" rx="4" fill="#FFEB9C" stroke="#ffffff" stroke-width="2"/>
<text x="666" y="402" font-size="10.5" fill="#8A6D00" opacity="0.55" text-anchor="end">8</text>
<rect x="678" y="384" width="118" height="92" rx="4" fill="#FFEB9C" stroke="#ffffff" stroke-width="2"/>
<text x="788" y="402" font-size="10.5" fill="#8A6D00" opacity="0.55" text-anchor="end">10</text>
<rect x="190" y="480" width="118" height="92" rx="4" fill="#C6EFCE" stroke="#ffffff" stroke-width="2"/>
<text x="300" y="498" font-size="10.5" fill="#1E6B34" opacity="0.55" text-anchor="end">1</text>
<rect x="312" y="480" width="118" height="92" rx="4" fill="#C6EFCE" stroke="#ffffff" stroke-width="2"/>
<text x="422" y="498" font-size="10.5" fill="#1E6B34" opacity="0.55" text-anchor="end">2</text>
<rect x="434" y="480" width="118" height="92" rx="4" fill="#C6EFCE" stroke="#ffffff" stroke-width="2"/>
<text x="544" y="498" font-size="10.5" fill="#1E6B34" opacity="0.55" text-anchor="end">3</text>
<rect x="556" y="480" width="118" height="92" rx="4" fill="#C6EFCE" stroke="#ffffff" stroke-width="2"/>
<text x="666" y="498" font-size="10.5" fill="#1E6B34" opacity="0.55" text-anchor="end">4</text>
<rect x="678" y="480" width="118" height="92" rx="4" fill="#C6EFCE" stroke="#ffffff" stroke-width="2"/>
<text x="788" y="498" font-size="10.5" fill="#1E6B34" opacity="0.55" text-anchor="end">5</text>
<text x="176" y="138.0" font-size="13" font-weight="bold" fill="#475569" text-anchor="end">5</text>
<text x="176" y="154.0" font-size="9.5" fill="#94a3b8" text-anchor="end">Severe</text>
<text x="176" y="234.0" font-size="13" font-weight="bold" fill="#475569" text-anchor="end">4</text>
<text x="176" y="250.0" font-size="9.5" fill="#94a3b8" text-anchor="end">Major</text>
<text x="176" y="330.0" font-size="13" font-weight="bold" fill="#475569" text-anchor="end">3</text>
<text x="176" y="346.0" font-size="9.5" fill="#94a3b8" text-anchor="end">Moderate</text>
<text x="176" y="426.0" font-size="13" font-weight="bold" fill="#475569" text-anchor="end">2</text>
<text x="176" y="442.0" font-size="9.5" fill="#94a3b8" text-anchor="end">Minor</text>
<text x="176" y="522.0" font-size="13" font-weight="bold" fill="#475569" text-anchor="end">1</text>
<text x="176" y="538.0" font-size="9.5" fill="#94a3b8" text-anchor="end">Negligible</text>
<text x="249.0" y="592" font-size="13" font-weight="bold" fill="#475569" text-anchor="middle">1</text>
<text x="249.0" y="607" font-size="9.5" fill="#94a3b8" text-anchor="middle">Rare</text>
<text x="371.0" y="592" font-size="13" font-weight="bold" fill="#475569" text-anchor="middle">2</text>
<text x="371.0" y="607" font-size="9.5" fill="#94a3b8" text-anchor="middle">Unlikely</text>
<text x="493.0" y="592" font-size="13" font-weight="bold" fill="#475569" text-anchor="middle">3</text>
<text x="493.0" y="607" font-size="9.5" fill="#94a3b8" text-anchor="middle">Possible</text>
<text x="615.0" y="592" font-size="13" font-weight="bold" fill="#475569" text-anchor="middle">4</text>
<text x="615.0" y="607" font-size="9.5" fill="#94a3b8" text-anchor="middle">Likely</text>
<text x="737.0" y="592" font-size="13" font-weight="bold" fill="#475569" text-anchor="middle">5</text>
<text x="737.0" y="607" font-size="9.5" fill="#94a3b8" text-anchor="middle">Almost certain</text>
<rect x="500" y="48" width="15" height="15" rx="3" fill="#C6EFCE" stroke="#1E6B34"/>
<text x="520" y="60" font-size="10.5" fill="#334155">Low (1–5)</text>
<rect x="581.4" y="48" width="15" height="15" rx="3" fill="#FFEB9C" stroke="#8A6D00"/>
<text x="601.4" y="60" font-size="10.5" fill="#334155">Medium (6–10)</text>
<rect x="689.1999999999999" y="48" width="15" height="15" rx="3" fill="#FFC79C" stroke="#9C4A00"/>
<text x="709.1999999999999" y="60" font-size="10.5" fill="#334155">High (11–15)</text>
<rect x="790.3999999999999" y="48" width="15" height="15" rx="3" fill="#FFB3B3" stroke="#B00000"/>
<text x="810.3999999999999" y="60" font-size="10.5" fill="#334155">Critical (16–25)</text>
<text x="40" y="710" font-size="11" fill="#94a3b8">Fictional scenario — Aguas de Valdenor, S.A. · Inherent risk shown; residual (post-control) risk is in the risk register · No real client data.</text>
</svg>